PathFileType	4	(X/Y/Z)	E:\Marcel_BSc\Ayumi_22_01_2025\22-01-2025\conv_dl_1.trc
DataRate	CameraRate	NumFrames	NumMarkers	Units	OrigDataRate	OrigDataStartFrame	OrigNumFrames
200.0	200.0	4	47	mm	200.0	1834	2445	
Frame#	Time	FHD			LBHD			RBHD			RBAR			LBAR			RSACR			LSACR			USACR			C7			CLAV			T10			RSHO			LSHO			LTHI1			LTHI3			LTHI2			LTIB1			LTIB2			LTIB3			LMMAL			LLMAL			LHEE			LMT1			LMT5			LMT3			RTHI1			RTHI2			RTHI3			RTIB1			RTIB3			RTIB2			RLMAL			RMMAL			RHEE			RMT5			RMT1			RMT3			LDUPA			LMUPA			LUUPA			LRAD			RUL			RRAD			RUFIN			RMUPA			RDUPA			RUUPA			
		X1	Y1	Z1	X2	Y2	Z2	X3	Y3	Z3	X4	Y4	Z4	X5	Y5	Z5	X6	Y6	Z6	X7	Y7	Z7	X8	Y8	Z8	X9	Y9	Z9	X10	Y10	Z10	X11	Y11	Z11	X12	Y12	Z12	X13	Y13	Z13	X14	Y14	Z14	X15	Y15	Z15	X16	Y16	Z16	X17	Y17	Z17	X18	Y18	Z18	X19	Y19	Z19	X20	Y20	Z20	X21	Y21	Z21	X22	Y22	Z22	X23	Y23	Z23	X24	Y24	Z24	X25	Y25	Z25	X26	Y26	Z26	X27	Y27	Z27	X28	Y28	Z28	X29	Y29	Z29	X30	Y30	Z30	X31	Y31	Z31	X32	Y32	Z32	X33	Y33	Z33	X34	Y34	Z34	X35	Y35	Z35	X36	Y36	Z36	X37	Y37	Z37	X38	Y38	Z38	X39	Y39	Z39	X40	Y40	Z40	X41	Y41	Z41	X42	Y42	Z42	X43	Y43	Z43	X44	Y44	Z44	X45	Y45	Z45	X46	Y46	Z46	X47	Y47	Z47	
1834	9.16	-241.10699	793.97858	-573.61084	-224.76382	820.24042	-525.70581	-206.05861	807.86279	-655.54828	199.80284	238.32899	-1723.9248	198.63284	283.01306	498.26712	453.9007	883.11145	-664.57404	447.79288	886.56244	-591.79364	439.38388	887.75098	-628.24237	-4.3397923	929.59265	-596.48627	37.892532	779.52795	-607.11835	265.92502	921.79199	-622.84204	-9.738677	788.53314	-742.05804	20.324488	797.83228	-443.59741	356.80795	565.73578	-416.42505	332.13995	507.83389	-431.71039	295.41373	541.28021	-421.49744	239.80467	237.10513	-428.86929	292.20493	234.7695	-428.01477	263.33078	174.54076	-435.77759	261.33008	77.255074	-525.19904	280.29868	69.436638	-448.55222	320.27621	35.340149	-495.10669	122.90465	45.377335	-486.79584	146.91052	27.109709	-411.23904	122.38765	43.180336	-452.79416	358.95471	562.58643	-833.50543	297.19333	541.02332	-829.17865	332.77533	505.55719	-815.6767	243.26418	271.23889	-825.91187	264.21671	210.735	-813.34723	293.73511	269.47916	-824.23004	276.0946	72.51757	-788.70435	243.81219	84.576263	-717.82788	317.36911	32.046192	-738.82928	139.36263	30.008118	-811.8042	116.34367	43.018005	-749.82837	120.91055	40.42218	-780.65326	185.05733	671.99011	-378.60962	138.89178	654.45837	-386.53879	116.88049	712.07617	-389.36087	223.81175	342.33496	-343.4675	151.62939	331.25406	-896.45831	154.19539	323.89673	-833.84515	156.56058	250.22534	-836.32806	61.573559	721.16229	-830.00635	84.454918	666.00513	-847.96112	102.91956	742.78778	-846.5611
1835	9.165	-241.31674	793.94946	-573.55444	-224.90309	820.18738	-525.59857	-206.16681	807.82611	-655.46936	199.6951	239.00734	-1724.2673	198.04031	281.98309	498.04904	453.91452	883.0603	-664.40302	447.79144	886.46881	-591.60944	439.38898	887.69641	-628.04523	-4.3281069	929.19189	-596.22058	37.907585	779.10779	-606.94861	265.88995	921.60034	-622.65613	-9.4711256	788.04175	-741.52704	20.426846	797.19745	-443.51178	356.4296	566.60107	-415.63318	332.16559	507.9512	-431.4826	295.39828	541.36072	-421.37347	239.85587	237.09531	-428.80402	292.23392	234.76695	-427.95984	264.44699	175.71599	-435.50476	261.28378	77.225555	-525.13483	280.35992	69.441872	-448.49075	320.28445	35.34626	-495.11716	122.90235	45.357178	-486.76926	146.89026	27.069439	-411.2113	122.39169	43.09103	-452.7934	358.91644	562.70941	-833.17517	297.15173	541.04724	-828.8999	332.7504	505.61453	-815.42175	243.34729	271.37137	-825.82941	264.25006	210.81007	-813.26013	293.83411	269.62524	-824.00317	276.0903	72.48674	-788.66504	243.81094	84.558212	-717.81024	317.3782	32.010654	-738.83179	139.32361	29.979265	-811.75134	116.33659	42.989788	-749.82202	120.95921	40.318359	-780.57239	185.18843	671.54767	-378.34134	139.03108	653.92444	-386.40549	117.21602	711.73517	-388.51944	223.79178	341.77457	-343.40201	151.72411	331.09933	-896.45508	154.23193	323.70468	-833.87592	156.49048	250.05087	-836.35791	61.476238	721.04572	-829.67786	84.419853	665.88837	-847.78229	102.78517	742.70392	-846.25836
1836	9.17	-242.34605	793.34747	-578.14001	-225.07503	820.12097	-525.50525	-206.22609	807.70258	-655.43323	199.88197	239.41139	-1724.2108	198.12685	280.76617	498.20602	453.93765	882.96228	-664.24591	447.81076	886.3562	-591.41473	439.39545	887.57111	-627.87964	-4.3198233	928.73535	-595.97986	37.948906	778.65857	-606.78967	265.8721	921.41327	-622.42725	-11.788556	789.15802	-742.42676	20.515667	796.52435	-443.44269	357.57336	568.05023	-413.55737	332.19897	508.052	-431.26434	295.40695	541.48145	-421.24124	239.94279	237.00539	-428.67725	292.26053	234.77811	-427.90567	264.42197	175.68407	-435.49432	261.28854	77.207008	-525.1048	280.3656	69.406342	-448.49347	320.27676	35.368412	-495.08826	122.91663	45.351768	-486.75726	146.88535	27.030119	-411.23697	122.3919	43.065052	-452.7948	358.85947	562.74744	-832.92804	296.4158	541.72504	-828.59167	332.68561	505.65356	-815.18402	243.64032	272.19678	-825.73456	264.29794	210.96255	-813.16589	293.8877	269.71652	-823.82788	276.08548	72.497353	-788.66083	243.81726	84.511559	-717.78387	317.38495	32.008953	-738.82416	139.31375	29.965111	-811.74127	116.35146	42.975452	-749.828	120.98662	40.250702	-780.55042	185.41583	671.19452	-378.03036	139.25642	653.4024	-386.29211	116.85898	710.67346	-388.95819	223.69263	341.16714	-343.37817	151.84343	330.98157	-896.47559	154.24287	323.50366	-833.92676	156.47963	249.76587	-836.50543	61.561138	720.86438	-829.5069	84.55925	665.76538	-847.67755	102.80569	742.62201	-846.14362
1837	9.175	-242.3268	789.00537	-585.07574	-225.26837	819.98114	-525.42682	-206.27246	807.5368	-655.45959	200.22441	239.4207	-1724.0767	197.85045	279.60809	498.1879	453.91711	882.83759	-664.03973	447.80542	886.24744	-591.21838	439.36938	887.41748	-627.71844	-4.3072586	928.31512	-595.71057	38.023342	778.30139	-606.66321	265.85275	921.16766	-622.20404	-9.0274944	787.08954	-740.96259	20.632729	795.80737	-443.35583	357.00653	566.23083	-415.79248	332.19312	508.18646	-430.99734	295.39316	541.62903	-421.12515	239.8261	237.03247	-428.72031	292.35242	234.76414	-427.82581	264.43472	175.70998	-435.44138	261.30222	77.24485	-525.12445	280.31158	69.385757	-448.48566	320.29105	35.344154	-495.10886	122.9194	45.375229	-486.75879	146.88391	27.063995	-411.22882	122.38348	43.176414	-452.78711	358.78848	562.79303	-832.73676	297.02615	541.13721	-828.4682	332.60617	505.73187	-814.99707	243.61502	272.34418	-825.5683	264.24973	211.08504	-813.03741	293.89902	269.79315	-823.70526	276.07755	72.545647	-788.66522	243.86069	84.519844	-717.77802	317.40161	32.018745	-738.83429	138.87083	30.343307	-812.06232	116.36456	42.99704	-749.82861	121.04079	40.205494	-780.52692	185.68588	670.84314	-377.73486	139.66249	652.86725	-386.09256	116.96227	710.19196	-388.90405	223.5932	340.55869	-343.36383	151.94734	330.83871	-896.55859	154.33456	323.29117	-834.02356	156.50473	249.55202	-836.62433	61.697067	720.74854	-829.42029	84.773262	665.68219	-847.71765	102.89272	742.60461	-846.07538
